<?xml version="1.0" encoding="utf-8"?>
<!-- Generator: Adobe Illustrator 22.0.1, SVG Export Plug-In . SVG Version: 6.00 Build 0)  -->
<svg version="1.1" id="Layer_1" xmlns="http://www.w3.org/2000/svg" xmlns:xlink="http://www.w3.org/1999/xlink" x="0px" y="0px"
	 viewBox="0 0 554.9 403.5" style="enable-background:new 0 0 554.9 403.5;" xml:space="preserve">
<style type="text/css">
	.st0{fill:#AADAF4;}
	.st1{fill:#559FD1;}
	.st2{fill:#CB8D2B;}
	.st3{fill:#D2EAF3;}
</style>
<g>
	<path class="st0" d="M87.7,70.4v0.4C87.7,70.6,87.7,70.5,87.7,70.4L87.7,70.4z"/>
	<path class="st0" d="M277.5,202.4H46.7H25.9c0,0,18.5,12.3,20.8,65.4c0,0,0,0,0,0c0,45.5,26.1,84.7,64.1,104l3.8-16
		c0.9-3.6,3.7-6.5,7.3-7.2c8.2-1.6,14.3,1,18.6,4.1c4.4,3.2,5.1,9.4,1.7,13.6l-10.9,13.5c10.2,2.9,20.9,4.6,32.1,4.6h114h114
		c14.6,0,28.6-2.8,41.5-7.7l-8.3-10.3c-3.4-4.2-2.7-10.4,1.7-13.6c4.2-3.1,10.4-5.7,18.6-4.1c3.6,0.7,6.5,3.6,7.3,7.2l2.4,10
		c32.2-20.8,53.5-56.8,53.6-98c0,0,0,0,0,0c2.3-53.1,20.8-65.4,20.8-65.4h-20.8H277.5z M437.9,310.5c-17.5,20.4-35.8,32.2-77.5,32.2
		c-2.7-0.1-5.4-2.3-5.4-5.2c0-2.9,2.3-5.2,5.2-5.2c0.1,0,0.1,0,0.2,0c37.9,0,53.7-10,69.6-28.5c15.1-17.7,14.5-53.9,14.5-54.3
		c-0.1-2.9,2.2-5.3,5.1-5.4c3,0.2,5.3,2.2,5.4,5.1C455,250.8,455.7,289.8,437.9,310.5z"/>
	<path class="st1" d="M537.6,165.4H277.5h-174H87.7H17.3c-9.5,0-17.3,7.8-17.3,17.3v2.4c0,9.5,7.8,17.3,17.3,17.3h8.6h20.8h230.7
		h230.7H529h8.6c9.5,0,17.3-7.8,17.3-17.3v-2.4C554.9,173.2,547.2,165.4,537.6,165.4z"/>
	<path class="st2" d="M444.9,348.6c-8.2-1.6-14.3,1-18.6,4.1c-4.4,3.2-5.1,9.4-1.7,13.6l8.3,10.3l13.6,16.8c0.4,0.5,0.9,0.7,1.3,1.1
		h13.6l-6.9-28.8l-2.4-10C451.4,352.2,448.5,349.3,444.9,348.6z"/>
	<path class="st2" d="M446.3,394.6c-1.9,0-3.4,1.5-3.4,3.4v2.2c0,1.9,1.5,3.4,3.4,3.4H467c1.9,0,3.4-1.5,3.4-3.4v-2.2
		c0-1.9-1.5-3.4-3.4-3.4h-5.6h-13.6H446.3z"/>
	<path class="st2" d="M140.5,352.7c-4.2-3.1-10.4-5.7-18.6-4.1c-3.6,0.7-6.5,3.6-7.3,7.2l-3.8,16l-5.4,22.8h13.6
		c0.4-0.4,1-0.6,1.3-1.1l11.1-13.7l10.9-13.5C145.6,362.2,144.9,355.9,140.5,352.7z"/>
	<path class="st2" d="M99.8,394.6c-1.9,0-3.4,1.5-3.4,3.4v2.2c0,1.9,1.5,3.4,3.4,3.4h20.7c1.9,0,3.4-1.5,3.4-3.4v-2.2
		c0-1.9-1.5-3.4-3.4-3.4h-1.6h-13.6H99.8z"/>
	<path class="st0" d="M158.5,0C119.6,0,88,31.5,87.7,70.4c0,0.1,0,0.3,0,0.4v94.6h15.7V70.8c0-30.4,24.7-55.1,55.1-55.1
		c22.6,0,42,13.7,50.5,33.2c2.7-0.7,5.5-1.2,8.4-1.2c2.9,0,5.7,0.5,8.4,1.2C216.5,20.6,189.9,0,158.5,0z"/>
	<path class="st1" d="M209,48.9c-14.7,3.8-25.7,17-25.7,32.9v1.3c0,2.9,2.4,5.3,5.3,5.3h57.6c2.9,0,5.3-2.4,5.3-5.3v-1.3
		c0-15.9-11-29.2-25.7-33c-2.7-0.7-5.5-1.2-8.4-1.2C214.5,47.8,211.7,48.2,209,48.9z"/>
	<path class="st3" d="M449.6,244.1c-2.9,0.1-5.2,2.5-5.1,5.4c0,0.4,0.7,36.6-14.5,54.3c-15.8,18.5-31.6,28.5-69.6,28.5
		c-0.1,0-0.1,0-0.2,0c-2.9,0-5.2,2.3-5.2,5.2c0,2.9,2.7,5.1,5.4,5.2c41.8,0,60.1-11.8,77.5-32.2c17.8-20.7,17-59.7,17-61.3
		C454.9,246.3,452.6,244.3,449.6,244.1z"/>
	<path class="st3" d="M212.1,103.2v23c0,2.9,2.3,5.2,5.2,5.2s5.2-2.3,5.2-5.2v-23c0-2.9-2.3-5.2-5.2-5.2S212.1,100.3,212.1,103.2z"
		/>
	<path class="st3" d="M192.1,101.5l-7.6,21.7c-1,2.7,0.5,5.7,3.2,6.7c0.6,0.2,1.2,0.3,1.7,0.3c2.2,0,4.2-1.4,4.9-3.5L202,105
		c1-2.7-0.5-5.7-3.2-6.7C196,97.3,193,98.8,192.1,101.5z"/>
	<path class="st3" d="M236,98.3c-2.7,1-4.2,4-3.2,6.7l7.6,21.7c0.8,2.2,2.8,3.5,4.9,3.5c0.6,0,1.2-0.1,1.7-0.3c2.7-1,4.2-4,3.2-6.7
		l-7.6-21.7C241.8,98.8,238.8,97.3,236,98.3z"/>
</g>
</svg>
