<?xml version="1.0" encoding="utf-8"?>
<!-- Generator: Adobe Illustrator 23.0.5, SVG Export Plug-In . SVG Version: 6.00 Build 0)  -->
<svg version="1.1" id="Layer_1" xmlns="http://www.w3.org/2000/svg" xmlns:xlink="http://www.w3.org/1999/xlink" x="0px" y="0px"
	 viewBox="0 0 2391.2 1168.7" style="enable-background:new 0 0 2391.2 1168.7;" xml:space="preserve">
<style type="text/css">
	.st0{stroke:#000000;stroke-width:9.380000e-02;}
	.st1{fill:#AF5309;stroke:#AF5309;stroke-width:9.380000e-02;}
	.st2{fill:#385D8A;stroke:#385D8A;stroke-width:9.380000e-02;}
	.st3{fill:#28609F;stroke:#28609F;stroke-width:9.380000e-02;}
	.st4{fill:#4F81BD;stroke:#4F81BD;stroke-width:9.380000e-02;}
	.st5{fill:#95B3D7;stroke:#95B3D7;stroke-width:9.380000e-02;}
	.st6{fill:#984807;stroke:#984807;stroke-width:9.380000e-02;}
	.st7{fill:#7030A0;stroke:#7030A0;stroke-width:9.380000e-02;}
	.st8{fill:#B3A2C7;stroke:#B3A2C7;stroke-width:9.380000e-02;}
	.st9{fill:#D0BDE7;stroke:#D0BDE7;stroke-width:9.380000e-02;}
	.st10{fill:#AF5308;stroke:#AF5308;stroke-width:9.380000e-02;}
	.st11{fill:#C6B3DC;stroke:#C6B3DC;stroke-width:9.380000e-02;}
	.st12{fill:#AF5208;stroke:#AF5208;stroke-width:9.380000e-02;}
</style>
<g>
	<path class="st0" d="M820.8,41.6c17.3-24.5,46.1-40.4,76.1-41.5c463.3,0,926.7,0,1390,0c15.1-0.6,30.4,1.8,44.2,8.1
		c25.9,11.1,46.5,33.8,55.2,60.6c6.3,17.7,4.6,36.6,4.8,55c0,108,0,216,0,324c-0.5,18.4,1.8,37.3-3.4,55.3
		c-9.8,38.5-44.9,69.1-84.5,73.2c-12.3,1.2-24.8,0.3-37.2,0.6c-43.8,0-87.6,0-131.3,0c3.4-3.1,6.9-5.9,10.3-8.9
		c40.3,0.2,80.7,0,121.1,0.1c15.9-0.2,32,1.1,47.6-2.9c28.1-6.7,52-28.2,62.2-55.2c4.6-11.6,6.2-24.3,5.8-36.7
		c0-123.9,0-247.7,0-371.6c1.1-29.6-14-59.1-38.2-76c-8.7-5.8-18.2-10.7-28.4-13.2c-14-4-28.7-3.2-43.1-3.3
		c-455.4,0-910.8,0-1366.2,0c-26-0.8-52.3,9.2-70,28.4c-12.7,13.7-21.6,31.3-23.6,49.9c-0.5,4.2-0.8,8.4-0.8,12.7
		c0.1,76.1-0.1,152.1,0.1,228.2c-3.3,1.6-6.5,3.4-9.7,5.1c0-76.8,0-153.7,0-230.5C801.7,81.1,807.8,59.2,820.8,41.6z"/>
	<path class="st1" d="M812.3,87.4c0.8,3.1,1.5,6.3,1.4,9.6c-0.3,76.8,0.1,153.5-0.2,230.2l-1.9,1c-0.2-76.1,0-152.1-0.1-228.2
		C811.4,95.8,811.8,91.6,812.3,87.4z"/>
	<path class="st2" d="M1548.8,187c9.2-10.1,21.9-17.7,35.8-18.7c4.9,2.2,10.3,1.4,15.5,1.5c122.9,0,245.9,0,368.8,0
		c5.6,0.1,11.3,0.2,16.9-1.1c16.6,2.6,31.4,13.5,39.7,27.9c8.6,13.7,10.6,30.6,8.3,46.3c50.2,0,100.5,0,150.7,0c4.5-0.4,5,4.6,5.1,8
		c0,8.2-0.1,16.4,1.1,24.5c0.4,58,1.4,116,1.8,174c0.2,1.8,0.5,3.5,1,5.2c0.9,22-0.8,44.1,0.8,66.1c0.5,3.5-2.4,6-4.7,8.1
		c-14.9,13-29.7,26-44.4,39c-3.4,3-7,5.9-10.3,8.9c-5.9,5.3-11.7,10.7-17.9,15.7c-0.1-4-0.4-7.9-0.5-11.8
		c23-19.7,45.8-39.7,68.3-59.9c-0.5-65.4-2.4-130.8-3.2-196.1c-0.8-22.4-0.4-44.8-1.5-67.2c-24.5,19.7-48.9,39.6-73.2,59.4
		c-12.4,10.3-25.3,19.9-37.3,30.6c-4.9,0-9.8,0-14.7,0c38.6-32.2,78.3-63.2,116.9-95.5c-46.7,0.1-93.3,0-140,0.1
		c-4.4,11-10.6,21.7-20.2,28.9c-9.9,7.9-22.4,12.4-35.1,12.3c-122.9,0-245.8,0-368.7,0c-11-0.3-22.2,1.2-32.8-2.5
		c-18.4-5.5-32.2-21-38.6-38.8c-8.8,0-17.6-0.3-26.4,0.1c-1.7,2-2.3,4.7-3.4,7c-8.4,19.7-28.7,34.4-50.4,34.1
		c-121.9,0-243.8,0-365.7,0c-18.3,0.1-36.2-9.7-45.9-25.1c-3.4-5-5.7-10.5-7.9-16.1c-16.3-0.3-32.5,0.1-48.8-0.1
		c-3.4,0-7-0.2-10.2,1.4c-55.1,28.5-110.4,56.8-165.6,85.3c-6.2,0.3-12.5,0.2-18.7-0.6c2.8-1.7,5.8-3.2,8.8-4.6
		c3.2-1.7,6.4-3.4,9.7-5.1l1.9-1c54.4-27.8,108.5-56.1,162.9-83.7c19.2-1.8,38.9,0.2,58.2-1c-3.3-19.5,3.3-40.5,17.5-54.3
		c9.2-9.3,22-15.2,35.1-15.4c123.9,0.1,247.8,0,371.7,0c12.3,0.4,24.4,5.7,33.3,14.1c15.2,13.8,22.2,35.6,18.9,55.8
		c7.6,0.1,15.1,0,22.7,0.1C1530.3,223.3,1535.4,202,1548.8,187 M1559.1,189.7c-20.9,19.2-22.7,54.8-4.6,76.4
		c8.2,10.1,20.5,17.1,33.7,17.6c119.4,0,238.9,0,358.3,0c-10.7-8.2-19.5-19.3-23.5-32.3c-9.3-26.2,0.3-58.3,23.5-74.1
		c-28.2-0.7-56.5-0.1-84.7-0.3c-90.7,0-181.4,0-272.1,0C1578.3,177.2,1567.2,181.9,1559.1,189.7 M1969,177.8
		c-20.1,3.5-35.5,21.5-39,41.1c-5.1,22.4,5.1,48.2,25.6,59.3c12,6.8,27.3,7.5,39.9,1.7c11.2-5,20.2-14.5,25-25.7
		c9.7-20.8,5.4-47.6-11.2-63.7C1998.9,180,1983.4,175.1,1969,177.8 M1059.3,194c-18.6,17.3-21.4,48.1-7.3,69
		c7.8,11.8,20.9,20.3,35.3,20.7c113.1-0.1,226.1,0,339.2-0.1c-5.8-5.5-12-10.7-15.9-17.8c-12.5-20.3-12.1-47.8,1.1-67.7
		c3.9-6.5,9.5-11.4,15.1-16.4c-111.7,0-223.4,0-335,0C1079.8,181.6,1067.9,185.8,1059.3,194 M1450.6,182.5
		c-12.5,1.7-23.8,9.3-30.7,19.8c-13.9,20-12.1,49.5,4.8,67.2c8.6,9.4,21.3,15.1,34.1,14.3c12.4-0.5,24.2-6.9,31.9-16.5
		c16-19.3,15.8-50.1-0.5-69.2C1480.9,186.5,1465.3,180.2,1450.6,182.5z"/>
	<path class="st3" d="M1584.6,168.3c26.5-1,53-0.1,79.5-0.4c95.1,0,190.3,0,285.4,0c12.1,0.4,24.2-0.8,36.2,0.7
		c-5.5,1.4-11.2,1.3-16.9,1.1c-122.9,0-245.9,0-368.8,0C1594.9,169.7,1589.5,170.5,1584.6,168.3z"/>
	<path class="st4" d="M1559.1,189.7c8.1-7.8,19.2-12.6,30.5-12.6c90.7,0,181.4,0,272.1,0c28.2,0.2,56.5-0.4,84.7,0.3
		c-23.2,15.8-32.8,47.8-23.5,74.1c4,13,12.7,24.1,23.5,32.3c-119.5-0.1-238.9,0-358.3,0c-13.1-0.5-25.5-7.5-33.7-17.6
		C1536.4,244.5,1538.2,208.9,1559.1,189.7z"/>
	<path class="st5" d="M1969,177.8c14.4-2.7,29.9,2.2,40.2,12.7c16.5,16.1,20.9,42.9,11.2,63.7c-4.8,11.2-13.8,20.8-25,25.7
		c-12.6,5.8-27.8,5.1-39.9-1.7c-20.5-11.1-30.7-37-25.6-59.3C1933.5,199.2,1948.9,181.3,1969,177.8z"/>
	<path class="st4" d="M1059.3,194c8.7-8.2,20.5-12.4,32.4-12.1c111.7,0,223.3,0,335,0c-5.6,4.9-11.3,9.9-15.1,16.4
		c-13.1,19.9-13.6,47.4-1.1,67.7c3.9,7.1,10.1,12.3,15.9,17.8c-113,0.1-226.1,0-339.2,0.1c-14.3-0.4-27.5-8.9-35.3-20.7
		C1037.8,242.1,1040.7,211.3,1059.3,194z"/>
	<path class="st5" d="M1450.6,182.5c14.7-2.3,30.3,3.9,39.7,15.5c16.3,19.1,16.5,49.9,0.5,69.2c-7.8,9.6-19.5,16-31.9,16.5
		c-12.8,0.8-25.5-4.8-34.1-14.3c-16.9-17.6-18.7-47.2-4.8-67.2C1426.8,191.8,1438.1,184.2,1450.6,182.5z"/>
	<path class="st6" d="M2381.8,101.5c1.1-29.6-14-59.1-38.2-76c-8.7-5.8-18.2-10.7-28.4-13.2c-14-4-28.7-3.2-43.1-3.3
		c-455.4,0-910.8,0-1366.2,0c-26-0.8-52.3,9.2-70,28.4c-12.7,13.7-21.6,31.3-23.6,49.9c0.8,3.1,1.5,6.3,1.4,9.6
		c-0.3,76.8,0.1,153.5-0.2,230.2c54.4-27.8,108.5-56.1,162.9-83.7c19.2-1.8,38.9,0.2,58.2-1c-3.3-19.5,3.3-40.5,17.5-54.3
		c9.2-9.3,22-15.2,35.1-15.4c123.9,0.1,247.8,0,371.7,0c12.3,0.4,24.4,5.7,33.3,14.1c15.2,13.8,22.2,35.6,18.9,55.8
		c7.6,0.1,15.1,0,22.7,0.1c-3.6-19.6,1.5-40.9,15-55.9c9.2-10.1,21.9-17.7,35.8-18.7c26.5-1,53-0.1,79.5-0.4c95.1,0,190.3,0,285.4,0
		c12.1,0.4,24.2-0.8,36.2,0.7c16.6,2.6,31.4,13.5,39.7,27.9c8.6,13.7,10.6,30.6,8.3,46.3c50.2,0,100.5,0,150.7,0
		c4.5-0.4,5,4.6,5.1,8c0,8.2-0.1,16.4,1.1,24.5c0.4,58,1.4,116,1.8,174c0.2,1.8,0.5,3.5,1,5.2c0.9,22-0.8,44.1,0.8,66.1
		c0.5,3.5-2.4,6-4.7,8.1c-14.9,13-29.7,26-44.4,39c40.3,0.2,80.7,0,121.1,0.1c15.9-0.2,32,1.1,47.6-2.9c28.1-6.7,52-28.2,62.2-55.2
		c4.6-11.6,6.2-24.3,5.8-36.7C2381.8,349.3,2381.8,225.4,2381.8,101.5z"/>
	<path class="st4" d="M977.4,253.2c3.2-1.6,6.8-1.3,10.2-1.4c16.3,0.2,32.5-0.1,48.8,0.1c2.2,5.5,4.5,11.1,7.9,16.1
		c9.7,15.4,27.6,25.3,45.9,25.1c121.9-0.1,243.8,0,365.7,0c21.8,0.4,42-14.4,50.4-34.1c1.1-2.3,1.6-5.1,3.4-7
		c8.8-0.4,17.6-0.1,26.4-0.1c6.4,17.7,20.2,33.3,38.6,38.8c10.6,3.6,21.8,2.2,32.8,2.5c122.9,0,245.8,0,368.7,0
		c12.7,0.1,25.2-4.4,35.1-12.3c9.6-7.2,15.9-17.9,20.2-28.9c46.7-0.1,93.3,0,140-0.1c-38.6,32.3-78.3,63.2-116.9,95.5
		c-16.2,0.1-32.5,0.3-48.7-0.5c-42.2,0.3-84.3-0.7-126.4-0.4c-25.7-1.4-51.4-0.2-77.1-0.7c-12.4-0.8-24.8-0.3-37.3-0.4
		c-29.2,0.2-58.5-0.7-87.7-0.4c-13.4,0.5-26.8-1-40.2-0.6c-19.3-0.2-38.7,0.4-58-0.4c-24.8-0.3-49.6,0.5-74.3-0.5
		c-18.9,0-37.7,0-56.6,0c-27.7-1.5-55.4,0.1-83.1-1c-25.3-0.4-50.6,0.5-75.8-0.6c-18.8,0-37.6,0-56.4,0c-27.7-1.5-55.5,0.1-83.3-1
		c-25.3-0.4-50.6,0.5-75.9-0.6c-18.9,0-37.7,0-56.6,0c-27.7-1.4-55.5,0.1-83.2-1c-19.8-0.1-39.7,0-59.5,0
		c-20.9-1.1-41.8-0.3-62.8-0.6C866.9,310,922.2,281.7,977.4,253.2z"/>
	<path class="st4" d="M2106.7,316.7c24.4-19.8,48.8-39.7,73.2-59.4c1.1,22.4,0.7,44.8,1.5,67.2c0.8,65.4,2.7,130.7,3.2,196.1
		c-22.5,20.2-45.3,40.2-68.3,59.9c-2.3-75-5.2-149.9-7.6-224.9c-0.1-3-0.3-8.4-4.4-8.2c-11.7,1.1-23.3-0.6-35-0.3
		C2081.4,336.6,2094.3,327,2106.7,316.7z"/>
	<path class="st7" d="M721,338.8c1.9-1.3,4.3-0.8,6.5-0.9c21.9,0.1,43.8,0,65.6,0.1c6.2,0.8,12.5,0.9,18.7,0.6
		c20.9,0.3,41.8-0.5,62.8,0.6c19.8,0,39.6-0.1,59.5,0c27.7,1.1,55.5-0.5,83.2,1c18.9,0,37.7,0,56.6,0c25.3,1.1,50.6,0.3,75.9,0.6
		c27.7,1.1,55.5-0.5,83.3,1c18.8,0,37.6,0,56.4,0c25.3,1.1,50.6,0.3,75.8,0.6c27.7,1.1,55.4-0.5,83.1,1c18.9,0,37.7,0,56.6,0
		c24.8,1,49.5,0.3,74.3,0.5c19.3,0.9,38.7,0.3,58,0.4c13.4-0.4,26.8,1.1,40.2,0.6c29.2-0.3,58.5,0.6,87.7,0.4
		c12.4,0.1,24.9-0.3,37.3,0.4c25.7,0.5,51.4-0.6,77.1,0.7c42.1-0.4,84.3,0.7,126.4,0.4c16.2,0.8,32.4,0.6,48.7,0.5
		c4.9,0,9.8,0,14.7,0c11.7-0.3,23.3,1.4,35,0.3c4.1-0.2,4.3,5.2,4.4,8.2c2.4,75,5.2,149.9,7.6,224.9c0.1,3.9,0.4,7.9,0.5,11.8
		c0.3,13.7,1.3,27.4,0.9,41.2c-7,7.9-15.8,14.2-23.5,21.4c-153.2,134.7-306.3,269.4-459.5,404.1c-7.4,6.1-14.1,13.2-21.9,18.7
		c0.4-4,0.5-8.1,0.5-12.1c1-0.9,2.1-1.8,3.1-2.7c164.1-144.2,328-288.5,492.1-432.7c-2.2-81.2-5.6-162.3-8-243.5
		c-0.7-8.5-0.5-17.1-1.1-25.6c-142.2,114-284.4,228.1-426.6,342.1c-19.9,15.6-39.1,32-59.3,47.1c-0.3-3.6-0.3-7.3-0.3-10.9
		c0.5-0.4,1.4-1.3,1.9-1.7c158.4-127,316.8-253.8,475.1-380.9c-15.2-0.4-30.4,0.5-45.6-0.6c-19.8-0.1-39.6,0-59.4,0
		c-25.7-1.2-51.5-0.3-77.3-0.7c-18.9-0.7-37.7-0.2-56.6-0.3c-13.9,0.4-27.7-1.1-41.6-0.7c-29.3,0.4-58.5-0.7-87.7-0.5
		c-33.2,0-66.4-0.8-99.6-0.4c-25.7-1.4-51.5-0.3-77.2-0.7c-13.9-0.7-27.8-0.2-41.7-0.3c-26.3,0.3-52.5-1-78.8-0.5
		c-18.4,0.5-36.7-1-55-0.7c-33.2,0.2-66.4-0.6-99.6-0.4c-11.9,0.4-23.7-0.9-35.6-0.6c-16.4,0-32.7,0-49.1,0
		c-26.7-1.4-53.5-0.1-80.3-0.8c-26.8-0.7-53.5,0.6-80.3-0.8c-18.8,0.1-37.6,0-56.4,0.1c-28.8-1.5-57.6,0-86.3-1
		c-19.8,0-39.6,0-59.5,0c-29.2-1.7-58.4,0.3-87.6-1.3c-4.4,0-9.1-0.6-12.9,1.9c-136.5,72.1-273.2,143.8-409.7,216
		c-1.1,0.6-3.4,1.9-4.5,2.5c-6.2,0.2-12.4,0.1-18.5-0.1c2.2-2.5,5.3-3.6,8.2-5.1C438.6,487.5,579.8,413.2,721,338.8z"/>
	<path class="st8" d="M722,348.7c3.9-2.5,8.6-1.9,12.9-1.9c29.2,1.6,58.4-0.4,87.6,1.3c19.8,0,39.6,0,59.5,0c28.8,1,57.6-0.5,86.3,1
		c18.8-0.1,37.6,0,56.4-0.1c26.7,1.4,53.5,0.2,80.3,0.8c26.8,0.7,53.6-0.6,80.3,0.8c16.4,0,32.7,0,49.1,0
		c11.9-0.3,23.7,1.1,35.6,0.6c33.2-0.3,66.4,0.6,99.6,0.4c18.4-0.4,36.7,1.1,55,0.7c26.3-0.4,52.5,0.8,78.8,0.5
		c13.9,0.1,27.8-0.3,41.7,0.3c25.7,0.4,51.5-0.7,77.2,0.7c33.2-0.4,66.4,0.4,99.6,0.4c29.2-0.2,58.5,0.9,87.7,0.5
		c13.9-0.5,27.7,1.1,41.6,0.7c18.9,0.2,37.7-0.3,56.6,0.3c25.8,0.3,51.5-0.6,77.3,0.7c19.8,0,39.6-0.1,59.4,0
		c15.2,1.1,30.4,0.3,45.6,0.6c-158.3,127.1-316.7,254-475.1,380.9c-0.8-28.3,0.5-56.7-0.7-85c-0.5,0.8-1.5,2.5-2,3.3
		c-4.5-33.2-26.5-63.3-56.5-78.1c-10.2-5.3-21.4-8.2-32.6-10.2c-2.6-3.6-7.4-2.1-11.1-2.6c-396.4,0-792.9,0-1189.3,0
		c-3.6,0-7.2-0.4-10.7-0.8C448.8,492.4,585.5,420.8,722,348.7z"/>
	<path class="st8" d="M1672.9,703.4c142.2-114,284.4-228.1,426.6-342.1c0.6,8.5,0.4,17.1,1.1,25.6c2.4,81.2,5.8,162.3,8,243.5
		c-164.1,144.2-328,288.5-492.1,432.7c-2.4-5.1-1.5-10.7-1.5-16.1c-0.1-97.6,0.1-195.3,0-292.9c-0.3-0.9-1-2.6-1.4-3.4v-0.1
		C1633.8,735.4,1653,719,1672.9,703.4z"/>
	<path class="st9" d="M307.8,567.2c1.1-0.6,3.4-1.9,4.5-2.5c3.6,0.4,7.1,0.7,10.7,0.8c396.4,0,792.9,0,1189.3,0
		c3.7,0.4,8.5-1,11.1,2.6c-14.1-1.5-28.2-0.5-42.3-0.8C1090.1,567.2,698.9,567.2,307.8,567.2z"/>
	<path class="st0" d="M40.6,588.8c18.4-14.7,42.1-22,65.5-21.5c61.1-0.1,122.2,0.3,183.2-0.2c6.2,0.2,12.4,0.3,18.5,0.1
		c391.1,0,782.2,0,1173.3,0c14.1,0.3,28.3-0.7,42.3,0.8c11.2,2,22.4,4.8,32.6,10.2c30,14.8,51.9,44.9,56.5,78.1
		c1.7,15.7,0.4,31.5,0.8,47.3c0,12,0,24,0,36.1c0,3.6,0,7.3,0.3,10.9v0.1c-0.6,105-0.1,210.1-0.2,315.1c0,4-0.1,8.1-0.5,12.1
		c-4.7,40-34.8,75.7-73.6,86.7c-16.8,5.5-34.6,3.8-52,4.1c-463.3,0-926.7,0-1390,0c-23-1.4-45.6-10.7-62.6-26.3
		C13.7,1124,0.9,1097,0.1,1069.2c0-129.8,0-259.6,0-389.5c0.1-7.5-0.4-15.1,0.8-22.6C4.2,630.2,18.9,605.1,40.6,588.8 M9.7,669.9
		c-1.4,6.6-0.4,13.4-0.7,20.1C9,814,9,937.8,9,1061.7c0.1,1,0.5,3.1,0.6,4.1c-1.1,25.8,10.9,51.3,29.7,68.8
		c17,16.1,40.3,24.7,63.6,25.2c469.3,0,938.6,0,1408,0c19-0.7,38.1-6.1,53.5-17.5c22.4-15.6,37.3-41.4,39.4-68.6
		c1.2-13.3,0.3-26.8,0.6-40.1c0-111,0-222,0-332.9c-0.3-16.1,1.1-32.3-2-48.2c-7.2-39.1-41.9-72-81.8-74.9
		c-3.7-0.9-7.4-0.6-11.1-0.6c-468.3,0-936.7,0-1405,0c-3.8,0-7.5-0.2-11.2,0.5C47.3,580.4,7.8,623.7,9.7,669.9z"/>
	<path class="st6" d="M9.7,669.9c-1.8-46.2,37.6-89.5,83.6-92.6c1.7,0.5,3.5,0.9,5.3,1.2c465.3,0.1,930.6,0,1395.9,0
		c8.7-0.5,17.6,1.2,26.1-1.1c39.8,3,74.6,35.9,81.8,74.9c3.1,15.9,1.6,32.1,2,48.2c0,111,0,222,0,332.9c-0.3,13.4,0.6,26.8-0.6,40.1
		c-2.1,27.2-17,53-39.4,68.6c-15.4,11.3-34.5,16.8-53.5,17.5c-469.3,0-938.6,0-1408,0c-23.3-0.5-46.6-9.1-63.6-25.2
		c-18.8-17.4-30.8-43-29.7-68.8c0.5-2.3,1.2-4.6,1.2-6.9c-0.2-120.4,0-240.9-0.1-361.3C10.4,688.3,11.9,679,9.7,669.9z"/>
	<path class="st10" d="M93.3,577.3c3.7-0.7,7.5-0.5,11.2-0.5c468.3,0,936.7,0,1405,0c3.7,0,7.5-0.3,11.1,0.6
		c-8.5,2.3-17.5,0.6-26.1,1.1c-465.3,0-930.6,0-1395.9,0C96.8,578.2,95,577.8,93.3,577.3z"/>
	<path class="st11" d="M1612.5,656.2c0.5-0.8,1.5-2.5,2-3.3c1.1,28.3-0.1,56.7,0.7,85c-0.5,0.4-1.4,1.3-1.9,1.7c0.1-12,0-24,0-36.1
		C1612.9,687.8,1614.2,671.9,1612.5,656.2z"/>
	<path class="st12" d="M9.7,669.9c2.2,9,0.7,18.4,1.1,27.6c0,120.4-0.1,240.9,0.1,361.3c0,2.3-0.7,4.6-1.2,6.9
		c-0.2-1-0.5-3.1-0.6-4.1C9,937.8,9,814,9,690.1C9.3,683.4,8.3,676.5,9.7,669.9z"/>
	<path class="st11" d="M1613.6,750.6c0.3,0.9,1,2.6,1.4,3.4c0.1,97.6,0,195.3,0,292.9c0,5.4-0.9,11,1.5,16.1
		c-1.1,0.9-2.1,1.8-3.1,2.7C1613.5,960.7,1613,855.7,1613.6,750.6z"/>
</g>
</svg>
