<?xml version="1.0" encoding="utf-8"?>
<!-- Generator: Adobe Illustrator 22.0.1, SVG Export Plug-In . SVG Version: 6.00 Build 0)  -->
<svg version="1.1" id="Layer_1" xmlns="http://www.w3.org/2000/svg" xmlns:xlink="http://www.w3.org/1999/xlink" x="0px" y="0px"
	 viewBox="0 0 188.5 269.3" style="enable-background:new 0 0 188.5 269.3;" xml:space="preserve">
<style type="text/css">
	.Arched_x0020_Green{fill:url(#SVGID_1_);stroke:#FFFFFF;stroke-width:0.25;stroke-miterlimit:1;}
	.st0{fill:#D1D3D4;}
	.st1{fill:#87A9BC;}
	.st2{fill:#648290;}
	.st3{fill:#C0D9E6;}
	.st4{fill:#FFFFFF;}
</style>
<linearGradient id="SVGID_1_" gradientUnits="userSpaceOnUse" x1="-75.8203" y1="276.3779" x2="-75.1132" y2="275.6708">
	<stop  offset="0" style="stop-color:#20AC4B"/>
	<stop  offset="0.9831" style="stop-color:#19361A"/>
</linearGradient>
<path class="st0" d="M131.6,269.3c-5.1,0-9.6-2.6-12.2-6.5h-50c-2.6,3.9-7.1,6.5-12.2,6.5H36.9c-5.1,0-9.6-2.6-12.2-6.5h-3.9
	l-2.2-4.9c-0.8-1.8-1.6-3.6-2.4-5.7C5.2,223.9,0,186.7,0,135.3c0-11.5,0.2-22.5,0.7-32.7l0.1-1.4C0.8,99.9,0.9,98.4,1,97
	c2.1-37,7.8-64.5,17.7-86.4l1.2-2.6l2.6-1.3C24.7,5.6,38.5,0,95.2,0c55.7,0,68.7,5.4,71.4,7.1l2.1,1.3l1,2.3
	c10,21.9,15.6,49.3,17.7,86.4c0.1,1.4,0.1,2.8,0.2,4.3l0.1,1.3c0.5,10.1,0.7,21.1,0.7,32.7c0,51.4-5.2,88.6-16.3,116.9
	c-0.8,2-1.6,3.9-2.4,5.7l-2.2,4.9H164c-2.6,3.9-7.1,6.5-12.2,6.5H131.6z"/>
<path d="M30.6,253.3c-0.1,0.4-0.1,0.9-0.1,1.3c0,3.6,2.9,6.4,6.4,6.4h20.2c3.6,0,6.4-2.9,6.4-6.4c0-0.4,0-0.9-0.1-1.3H30.6z"/>
<path d="M125.3,253.3c-0.1,0.4-0.1,0.9-0.1,1.3c0,3.6,2.9,6.4,6.4,6.4h20.2c3.6,0,6.4-2.9,6.4-6.4c0-0.4,0-0.9-0.1-1.3H125.3z"/>
<path class="st1" d="M162.3,14.1c0,0-9.4-5.8-67-5.8c-57.6,0-69,5.8-69,5.8C15.8,37,11.1,65.7,9.2,97.5h170
	C177.5,65.7,172.7,37,162.3,14.1z"/>
<path class="st1" d="M180.2,135.3c0-11-0.2-21.8-0.7-32.3H9c-0.5,10.5-0.7,21.3-0.7,32.3c0,43.3,3.6,83.1,15.7,113.8h140.5
	C176.6,218.4,180.2,178.7,180.2,135.3z"/>
<path class="st2" d="M24,249.1c0.7,1.8,1.5,3.6,2.2,5.4h136c0.8-1.8,1.5-3.5,2.2-5.4H24z"/>
<path class="st3" d="M27.6,23.2c0,0-11.6,36.4-12.9,86.1C12,209.8,30.2,243.9,30.2,243.9s-5.7-43.2-6.4-107.3
	C23,72.5,27.6,23.2,27.6,23.2z"/>
<path class="st3" d="M160,23.6c0,0,11.6,36.4,12.9,86.1c2.7,100.5-15.5,134.6-15.5,134.6s5.7-43.2,6.4-107.3
	C164.6,72.9,160,23.6,160,23.6z"/>
<path class="st2" d="M179.3,97.5H9.2c-0.1,1.8-0.2,3.7-0.3,5.5h170.6C179.5,101.2,179.4,99.3,179.3,97.5z"/>
<g>
	<path class="st4" d="M65.7,83.3c0,2.9-10.7,5.2-23.9,5.2c-13.2,0-23.9-2.3-23.9-5.2c0-2.9,10.7-5.2,23.9-5.2
		C55,78,65.7,80.4,65.7,83.3z"/>
	<path class="st2" d="M19.1,83.2c0,0,13.2,1.6,23.2,1.6c11.3,0.1,22.2-1.5,22.2-1.5s-2.9,4.3-22.2,4.3C21,87.7,19.1,83.2,19.1,83.2z
		"/>
	<path class="st3" d="M57,81.3c0,1-6.7,1.7-15,1.7c-8.3,0-15-0.8-15-1.7c0-0.9,6.7-1.7,15-1.7C50.2,79.5,57,80.3,57,81.3z"/>
</g>
<g>
	<path class="st4" d="M66.7,118.7c0,2.9-10.7,5.2-23.9,5.2c-13.2,0-23.9-2.3-23.9-5.2c0-2.9,10.7-5.2,23.9-5.2
		C56,113.5,66.7,115.8,66.7,118.7z"/>
	<path class="st2" d="M20.1,118.7c0,0,13.2,1.6,23.2,1.6c11.3,0.1,22.2-1.5,22.2-1.5s-2.9,4.3-22.2,4.3
		C22,123.2,20.1,118.7,20.1,118.7z"/>
	<path class="st3" d="M57.9,116.7c0,1-6.7,1.7-15,1.7c-8.3,0-15-0.8-15-1.7c0-0.9,6.7-1.7,15-1.7C51.2,115,57.9,115.8,57.9,116.7z"
		/>
</g>
</svg>
